<svg width="230" height="53" viewBox="0 0 230 53" fill="none" xmlns="http://www.w3.org/2000/svg">
<path d="M58.6314 30.6056C58.1779 30.6056 57.813 30.4763 57.5369 30.2175C57.2805 29.9587 57.1523 29.6103 57.1523 29.1724V10.9583C57.1523 10.5005 57.2904 10.1322 57.5665 9.85353C57.8426 9.55494 58.2074 9.40564 58.661 9.40564C59.1343 9.40564 59.509 9.54498 59.7851 9.82367C60.0612 10.1024 60.1993 10.4806 60.1993 10.9583V28.0378H69.1922C69.6458 28.0378 69.9909 28.1472 70.2276 28.3662C70.484 28.5852 70.6122 28.9037 70.6122 29.3217C70.6122 29.7397 70.484 30.0582 70.2276 30.2772C69.9909 30.4962 69.6458 30.6056 69.1922 30.6056H58.6314Z" fill="#EFF3F8"/>
<path d="M79.9268 15.6761C81.8398 15.6761 83.2597 16.1638 84.1866 17.1392C85.1332 18.1146 85.6065 19.5976 85.6065 21.5882V29.3217C85.6065 29.7795 85.4783 30.1378 85.222 30.3966C84.9656 30.6355 84.6106 30.7549 84.157 30.7549C83.7231 30.7549 83.378 30.6255 83.1216 30.3668C82.8653 30.108 82.7371 29.7596 82.7371 29.3217V28.2169C82.3624 29.053 81.8003 29.6999 81.0509 30.1578C80.3212 30.5957 79.4633 30.8147 78.4773 30.8147C77.5306 30.8147 76.6629 30.6255 75.8741 30.2473C75.1049 29.8492 74.4936 29.3117 74.04 28.6349C73.5864 27.9581 73.3596 27.1917 73.3596 26.3358C73.3399 25.2609 73.6061 24.4248 74.1583 23.8276C74.7105 23.2105 75.6078 22.7726 76.8503 22.5138C78.0927 22.2351 79.8183 22.0958 82.0271 22.0958H82.7075V21.2299C82.7075 20.1151 82.4807 19.3089 82.0271 18.8113C81.5735 18.3136 80.8438 18.0648 79.838 18.0648C79.1478 18.0648 78.497 18.1544 77.8856 18.3335C77.2743 18.5127 76.6037 18.7715 75.8741 19.1099C75.3416 19.4085 74.9669 19.5578 74.7499 19.5578C74.4541 19.5578 74.2076 19.4483 74.0104 19.2293C73.8329 19.0103 73.7441 18.7317 73.7441 18.3932C73.7441 18.0947 73.823 17.8359 73.9808 17.6169C74.1583 17.378 74.4344 17.1491 74.8091 16.9301C75.4993 16.5519 76.3079 16.2533 77.2348 16.0344C78.1617 15.7955 79.059 15.6761 79.9268 15.6761ZM79.0097 28.5752C80.0944 28.5752 80.9819 28.207 81.6721 27.4704C82.3624 26.714 82.7075 25.7486 82.7075 24.5741V23.7978H82.175C80.6368 23.7978 79.4535 23.8674 78.6252 24.0068C77.7969 24.1461 77.2052 24.385 76.8503 24.7234C76.4953 25.0419 76.3178 25.5097 76.3178 26.1268C76.3178 26.8434 76.5742 27.4306 77.0869 27.8885C77.5997 28.3463 78.2406 28.5752 79.0097 28.5752Z" fill="#EFF3F8"/>
<path d="M98.3314 15.6761C99.5936 15.6761 100.708 15.9846 101.674 16.6017C102.641 17.2188 103.39 18.0947 103.922 19.2293C104.475 20.364 104.751 21.6877 104.751 23.2006C104.751 24.6935 104.475 26.0173 103.922 27.1718C103.39 28.3264 102.631 29.2222 101.645 29.8592C100.678 30.4962 99.5738 30.8147 98.3314 30.8147C97.2467 30.8147 96.2902 30.5857 95.462 30.1279C94.6337 29.6502 94.0026 28.9733 93.5687 28.0975V29.2918C93.5687 29.7298 93.4307 30.0881 93.1546 30.3668C92.8982 30.6255 92.5432 30.7549 92.0896 30.7549C91.636 30.7549 91.2712 30.6255 90.9951 30.3668C90.719 30.0881 90.5809 29.7298 90.5809 29.2918V10.8389C90.5809 10.4009 90.719 10.0526 90.9951 9.79381C91.2909 9.53503 91.6656 9.40564 92.1192 9.40564C92.5531 9.40564 92.8982 9.53503 93.1546 9.79381C93.4307 10.0327 93.5687 10.3611 93.5687 10.7792V18.4231C94.0026 17.5472 94.6337 16.8704 95.462 16.3927C96.2902 15.9149 97.2467 15.6761 98.3314 15.6761ZM97.6214 28.4259C98.9033 28.4259 99.8993 27.9681 100.609 27.0524C101.339 26.1367 101.704 24.8528 101.704 23.2006C101.704 21.5683 101.349 20.3142 100.639 19.4383C99.9288 18.5425 98.923 18.0947 97.6214 18.0947C96.3198 18.0947 95.314 18.5425 94.6041 19.4383C93.9138 20.3341 93.5687 21.6081 93.5687 23.2603C93.5687 24.9125 93.9138 26.1865 94.6041 27.0823C95.314 27.978 96.3198 28.4259 97.6214 28.4259Z" fill="#EFF3F8"/>
<path d="M115.01 15.6761C116.923 15.6761 118.343 16.1638 119.27 17.1392C120.217 18.1146 120.69 19.5976 120.69 21.5882V29.3217C120.69 29.7795 120.562 30.1378 120.306 30.3966C120.049 30.6355 119.694 30.7549 119.241 30.7549C118.807 30.7549 118.462 30.6255 118.205 30.3668C117.949 30.108 117.821 29.7596 117.821 29.3217V28.2169C117.446 29.053 116.884 29.6999 116.134 30.1578C115.405 30.5957 114.547 30.8147 113.561 30.8147C112.614 30.8147 111.746 30.6255 110.958 30.2473C110.188 29.8492 109.577 29.3117 109.124 28.6349C108.67 27.9581 108.443 27.1917 108.443 26.3358C108.423 25.2609 108.69 24.4248 109.242 23.8276C109.794 23.2105 110.691 22.7726 111.934 22.5138C113.176 22.2351 114.902 22.0958 117.111 22.0958H117.791V21.2299C117.791 20.1151 117.564 19.3089 117.111 18.8113C116.657 18.3136 115.927 18.0648 114.922 18.0648C114.231 18.0648 113.581 18.1544 112.969 18.3335C112.358 18.5127 111.687 18.7715 110.958 19.1099C110.425 19.4085 110.05 19.5578 109.833 19.5578C109.538 19.5578 109.291 19.4483 109.094 19.2293C108.916 19.0103 108.828 18.7317 108.828 18.3932C108.828 18.0947 108.907 17.8359 109.064 17.6169C109.242 17.378 109.518 17.1491 109.893 16.9301C110.583 16.5519 111.391 16.2533 112.318 16.0344C113.245 15.7955 114.143 15.6761 115.01 15.6761ZM114.093 28.5752C115.178 28.5752 116.065 28.207 116.756 27.4704C117.446 26.714 117.791 25.7486 117.791 24.5741V23.7978H117.259C115.72 23.7978 114.537 23.8674 113.709 24.0068C112.88 24.1461 112.289 24.385 111.934 24.7234C111.579 25.0419 111.401 25.5097 111.401 26.1268C111.401 26.8434 111.658 27.4306 112.17 27.8885C112.683 28.3463 113.324 28.5752 114.093 28.5752Z" fill="#EFF3F8"/>
<path d="M127.528 30.6056C127.055 30.6056 126.68 30.4762 126.404 30.2175C126.148 29.9388 126.02 29.5705 126.02 29.1127V11.0479C126.02 10.59 126.148 10.2317 126.404 9.97296C126.68 9.69427 127.055 9.55493 127.528 9.55493H133.326C136.699 9.55493 139.312 10.4706 141.166 12.302C143.019 14.1333 143.946 16.7211 143.946 20.0654C143.946 23.4096 143.019 26.0073 141.166 27.8586C139.312 29.69 136.699 30.6056 133.326 30.6056H127.528ZM133.149 28.0378C138.276 28.0378 140.84 25.3803 140.84 20.0654C140.84 14.7703 138.276 12.1228 133.149 12.1228H129.066V28.0378H133.149Z" fill="#EFF3F8"/>
<path d="M154.687 15.6761C156.6 15.6761 158.02 16.1638 158.947 17.1392C159.894 18.1146 160.367 19.5976 160.367 21.5882V29.3217C160.367 29.7795 160.239 30.1378 159.982 30.3966C159.726 30.6355 159.371 30.7549 158.917 30.7549C158.484 30.7549 158.138 30.6255 157.882 30.3668C157.626 30.108 157.498 29.7596 157.498 29.3217V28.2169C157.123 29.053 156.561 29.6999 155.811 30.1578C155.082 30.5957 154.224 30.8147 153.238 30.8147C152.291 30.8147 151.423 30.6255 150.635 30.2473C149.865 29.8492 149.254 29.3117 148.8 28.6349C148.347 27.9581 148.12 27.1917 148.12 26.3358C148.1 25.2608 148.367 24.4248 148.919 23.8276C149.471 23.2105 150.368 22.7726 151.611 22.5138C152.853 22.2351 154.579 22.0958 156.788 22.0958H157.468V21.2299C157.468 20.1151 157.241 19.3089 156.788 18.8113C156.334 18.3136 155.604 18.0648 154.599 18.0648C153.908 18.0648 153.257 18.1544 152.646 18.3335C152.035 18.5127 151.364 18.7715 150.635 19.1099C150.102 19.4085 149.727 19.5578 149.51 19.5578C149.215 19.5578 148.968 19.4483 148.771 19.2293C148.593 19.0103 148.505 18.7316 148.505 18.3932C148.505 18.0947 148.583 17.8359 148.741 17.6169C148.919 17.378 149.195 17.1491 149.57 16.9301C150.26 16.5519 151.068 16.2533 151.995 16.0344C152.922 15.7955 153.82 15.6761 154.687 15.6761ZM153.77 28.5752C154.855 28.5752 155.742 28.207 156.433 27.4704C157.123 26.714 157.468 25.7485 157.468 24.5741V23.7978H156.935C155.397 23.7978 154.214 23.8674 153.386 24.0068C152.557 24.1461 151.966 24.385 151.611 24.7234C151.256 25.0419 151.078 25.5097 151.078 26.1268C151.078 26.8434 151.335 27.4306 151.847 27.8885C152.36 28.3463 153.001 28.5752 153.77 28.5752Z" fill="#EFF3F8"/>
<path d="M175.606 16.6316C175.725 16.333 175.892 16.114 176.109 15.9747C176.346 15.8353 176.592 15.7656 176.849 15.7656C177.223 15.7656 177.549 15.895 177.825 16.1538C178.121 16.4126 178.269 16.7211 178.269 17.0794C178.269 17.2785 178.229 17.4676 178.15 17.6468L172.5 29.7397C172.362 30.0582 172.145 30.307 171.849 30.4862C171.573 30.6455 171.278 30.7251 170.962 30.7251C170.646 30.7251 170.341 30.6455 170.045 30.4862C169.769 30.307 169.562 30.0582 169.424 29.7397L163.774 17.6468C163.695 17.4875 163.655 17.2984 163.655 17.0794C163.655 16.7211 163.813 16.4126 164.129 16.1538C164.444 15.895 164.799 15.7656 165.193 15.7656C165.765 15.7656 166.189 16.0443 166.466 16.6017L171.051 26.8732L175.606 16.6316Z" fill="#EFF3F8"/>
<path d="M187.431 15.6761C189.344 15.6761 190.764 16.1638 191.691 17.1392C192.637 18.1146 193.111 19.5976 193.111 21.5882V29.3217C193.111 29.7795 192.982 30.1378 192.726 30.3966C192.47 30.6355 192.115 30.7549 191.661 30.7549C191.227 30.7549 190.882 30.6255 190.626 30.3668C190.369 30.108 190.241 29.7596 190.241 29.3217V28.2169C189.866 29.053 189.304 29.6999 188.555 30.1578C187.825 30.5957 186.967 30.8147 185.981 30.8147C185.035 30.8147 184.167 30.6255 183.378 30.2473C182.609 29.8492 181.998 29.3117 181.544 28.6349C181.09 27.9581 180.864 27.1917 180.864 26.3358C180.844 25.2608 181.11 24.4248 181.662 23.8276C182.215 23.2105 183.112 22.7726 184.354 22.5138C185.597 22.2351 187.322 22.0958 189.531 22.0958H190.212V21.2299C190.212 20.1151 189.985 19.3089 189.531 18.8113C189.078 18.3136 188.348 18.0648 187.342 18.0648C186.652 18.0648 186.001 18.1544 185.39 18.3335C184.778 18.5127 184.108 18.7715 183.378 19.1099C182.846 19.4085 182.471 19.5578 182.254 19.5578C181.958 19.5578 181.712 19.4483 181.514 19.2293C181.337 19.0103 181.248 18.7316 181.248 18.3932C181.248 18.0947 181.327 17.8359 181.485 17.6169C181.662 17.378 181.938 17.1491 182.313 16.9301C183.003 16.5519 183.812 16.2533 184.739 16.0344C185.666 15.7955 186.563 15.6761 187.431 15.6761ZM186.514 28.5752C187.598 28.5752 188.486 28.207 189.176 27.4704C189.866 26.714 190.212 25.7485 190.212 24.5741V23.7978H189.679C188.141 23.7978 186.958 23.8674 186.129 24.0068C185.301 24.1461 184.709 24.385 184.354 24.7234C183.999 25.0419 183.822 25.5097 183.822 26.1268C183.822 26.8434 184.078 27.4306 184.591 27.8885C185.104 28.3463 185.745 28.5752 186.514 28.5752Z" fill="#EFF3F8"/>
<path d="M205.865 15.6761C209.316 15.6761 211.042 17.6368 211.042 21.5583V29.3217C211.042 29.7795 210.904 30.1378 210.628 30.3966C210.371 30.6355 210.006 30.7549 209.533 30.7549C209.08 30.7549 208.715 30.6255 208.439 30.3668C208.182 30.108 208.054 29.7596 208.054 29.3217V21.7076C208.054 20.4734 207.808 19.5677 207.315 18.9904C206.841 18.4131 206.092 18.1245 205.066 18.1245C203.863 18.1245 202.897 18.5027 202.167 19.2592C201.438 20.0156 201.073 21.0308 201.073 22.3048V29.3217C201.073 29.7596 200.935 30.108 200.659 30.3668C200.402 30.6255 200.047 30.7549 199.594 30.7549C199.14 30.7549 198.775 30.6255 198.499 30.3668C198.223 30.108 198.085 29.7596 198.085 29.3217V17.169C198.085 16.751 198.223 16.4126 198.499 16.1538C198.795 15.8751 199.16 15.7358 199.594 15.7358C200.028 15.7358 200.373 15.8652 200.629 16.1239C200.885 16.3827 201.014 16.7211 201.014 17.1392V18.3634C201.487 17.4875 202.148 16.8207 202.996 16.3628C203.844 15.905 204.8 15.6761 205.865 15.6761Z" fill="#EFF3F8"/>
<path d="M222.081 15.6761C223.994 15.6761 225.414 16.1638 226.341 17.1392C227.287 18.1146 227.761 19.5976 227.761 21.5882V29.3217C227.761 29.7795 227.633 30.1378 227.376 30.3966C227.12 30.6355 226.765 30.7549 226.311 30.7549C225.877 30.7549 225.532 30.6255 225.276 30.3668C225.02 30.108 224.891 29.7596 224.891 29.3217V28.2169C224.517 29.053 223.955 29.6999 223.205 30.1578C222.475 30.5957 221.618 30.8147 220.632 30.8147C219.685 30.8147 218.817 30.6255 218.028 30.2473C217.259 29.8492 216.648 29.3117 216.194 28.6349C215.741 27.9581 215.514 27.1917 215.514 26.3358C215.494 25.2608 215.76 24.4248 216.313 23.8276C216.865 23.2105 217.762 22.7726 219.005 22.5138C220.247 22.2351 221.973 22.0958 224.181 22.0958H224.862V21.2299C224.862 20.1151 224.635 19.3089 224.181 18.8113C223.728 18.3136 222.998 18.0648 221.992 18.0648C221.302 18.0648 220.651 18.1544 220.04 18.3335C219.429 18.5127 218.758 18.7715 218.028 19.1099C217.496 19.4085 217.121 19.5578 216.904 19.5578C216.608 19.5578 216.362 19.4483 216.165 19.2293C215.987 19.0103 215.898 18.7316 215.898 18.3932C215.898 18.0947 215.977 17.8359 216.135 17.6169C216.313 17.378 216.589 17.1491 216.963 16.9301C217.654 16.5519 218.462 16.2533 219.389 16.0344C220.316 15.7955 221.213 15.6761 222.081 15.6761ZM221.164 28.5752C222.249 28.5752 223.136 28.207 223.826 27.4704C224.517 26.714 224.862 25.7485 224.862 24.5741V23.7978H224.329C222.791 23.7978 221.608 23.8674 220.779 24.0068C219.951 24.1461 219.359 24.385 219.005 24.7234C218.65 25.0419 218.472 25.5097 218.472 26.1268C218.472 26.8434 218.728 27.4306 219.241 27.8885C219.754 28.3463 220.395 28.5752 221.164 28.5752Z" fill="#EFF3F8"/>
<path d="M63.199 40.5741C63.2335 40.4975 63.2818 40.4382 63.3439 40.3964C63.4129 40.3546 63.4854 40.3337 63.5613 40.3337C63.6718 40.3337 63.7684 40.3721 63.8513 40.4487C63.941 40.5184 63.9859 40.6055 63.9859 40.71C63.9859 40.7657 63.972 40.8214 63.9444 40.8772L60.9729 47.5447C60.9315 47.6353 60.8694 47.705 60.7866 47.7537C60.7037 47.8025 60.614 47.8269 60.5174 47.8269C60.4207 47.8269 60.331 47.8025 60.2482 47.7537C60.1653 47.705 60.1032 47.6353 60.0618 47.5447L57.1006 40.8772C57.0799 40.8214 57.0696 40.7692 57.0696 40.7204C57.0696 40.6089 57.1144 40.5184 57.2042 40.4487C57.2939 40.3721 57.394 40.3337 57.5044 40.3337C57.6701 40.3337 57.7909 40.4139 57.8668 40.5741L60.5381 46.6669L63.199 40.5741Z" fill="#EFF3F8"/>
<path d="M65.8712 47.8269C65.7469 47.8269 65.6434 47.7921 65.5606 47.7224C65.4847 47.6458 65.4467 47.5412 65.4467 47.4089V42.9987C65.4467 42.8663 65.4847 42.7653 65.5606 42.6956C65.6434 42.619 65.7469 42.5806 65.8712 42.5806C65.9954 42.5806 66.0955 42.619 66.1715 42.6956C66.2474 42.7653 66.2853 42.8663 66.2853 42.9987V47.4089C66.2853 47.5482 66.2474 47.6527 66.1715 47.7224C66.0955 47.7921 65.9954 47.8269 65.8712 47.8269ZM65.8712 41.4833C65.7055 41.4833 65.5709 41.4345 65.4674 41.337C65.3639 41.2395 65.3121 41.1106 65.3121 40.9503C65.3121 40.7971 65.3639 40.6716 65.4674 40.5741C65.5709 40.4766 65.7055 40.4278 65.8712 40.4278C66.0369 40.4278 66.1715 40.4766 66.275 40.5741C66.3785 40.6716 66.4303 40.7971 66.4303 40.9503C66.4303 41.1106 66.3785 41.2395 66.275 41.337C66.1715 41.4345 66.0369 41.4833 65.8712 41.4833Z" fill="#EFF3F8"/>
<path d="M69.5511 47.8478C69.2336 47.8478 68.9299 47.8095 68.64 47.7328C68.357 47.6562 68.1051 47.5482 67.8842 47.4089C67.7599 47.3253 67.6702 47.2486 67.615 47.179C67.5667 47.1023 67.5425 47.0117 67.5425 46.9072C67.5425 46.8167 67.5667 46.7435 67.615 46.6878C67.6702 46.6251 67.7392 46.5937 67.8221 46.5937C67.9049 46.5937 68.0257 46.646 68.1844 46.7505C68.3915 46.8759 68.5951 46.9769 68.7953 47.0535C69.0024 47.1232 69.2578 47.1581 69.5615 47.1581C69.9342 47.1581 70.2241 47.0919 70.4312 46.9595C70.6383 46.8271 70.7418 46.6355 70.7418 46.3847C70.7418 46.2314 70.7038 46.1095 70.6279 46.0189C70.552 45.9214 70.4208 45.8378 70.2345 45.7681C70.0481 45.6915 69.7755 45.6148 69.4165 45.5382C68.8091 45.4058 68.3743 45.2282 68.112 45.0052C67.8497 44.7823 67.7185 44.4792 67.7185 44.096C67.7185 43.7964 67.8013 43.5317 67.967 43.3017C68.1327 43.0718 68.3604 42.8907 68.6504 42.7583C68.9472 42.6259 69.2819 42.5597 69.6547 42.5597C69.9239 42.5597 70.1827 42.5981 70.4312 42.6747C70.6866 42.7444 70.9109 42.8454 71.1042 42.9778C71.3389 43.145 71.4562 43.3192 71.4562 43.5003C71.4562 43.5909 71.4286 43.6675 71.3734 43.7302C71.3182 43.7929 71.2526 43.8243 71.1767 43.8243C71.0938 43.8243 70.9696 43.7651 70.8039 43.6466C70.6107 43.5212 70.4277 43.4237 70.2552 43.354C70.0826 43.2843 69.8686 43.2495 69.6132 43.2495C69.2888 43.2495 69.0265 43.3226 68.8264 43.469C68.6331 43.6153 68.5365 43.8103 68.5365 44.0542C68.5365 44.2075 68.571 44.3329 68.64 44.4304C68.7159 44.521 68.8367 44.6046 69.0024 44.6812C69.1749 44.7509 69.42 44.8206 69.7375 44.8902C70.2069 44.9948 70.5692 45.1097 70.8246 45.2351C71.0869 45.3605 71.2733 45.5138 71.3837 45.695C71.4942 45.8761 71.5494 46.106 71.5494 46.3847C71.5494 46.8236 71.3665 47.179 71.0006 47.4507C70.6348 47.7154 70.1516 47.8478 69.5511 47.8478Z" fill="#EFF3F8"/>
<path d="M74.5258 47.8478C74.2082 47.8478 73.9045 47.8095 73.6146 47.7328C73.3316 47.6562 73.0797 47.5482 72.8588 47.4089C72.7346 47.3253 72.6448 47.2486 72.5896 47.179C72.5413 47.1023 72.5171 47.0117 72.5171 46.9072C72.5171 46.8167 72.5413 46.7435 72.5896 46.6878C72.6448 46.6251 72.7139 46.5937 72.7967 46.5937C72.8795 46.5937 73.0003 46.646 73.1591 46.7505C73.3661 46.8759 73.5698 46.9769 73.7699 47.0535C73.977 47.1232 74.2324 47.1581 74.5361 47.1581C74.9088 47.1581 75.1987 47.0919 75.4058 46.9595C75.6129 46.8271 75.7164 46.6355 75.7164 46.3847C75.7164 46.2314 75.6785 46.1095 75.6025 46.0189C75.5266 45.9214 75.3955 45.8378 75.2091 45.7681C75.0227 45.6915 74.7501 45.6148 74.3912 45.5382C73.7837 45.4058 73.3489 45.2282 73.0866 45.0052C72.8243 44.7823 72.6931 44.4792 72.6931 44.096C72.6931 43.7964 72.776 43.5317 72.9416 43.3017C73.1073 43.0718 73.3351 42.8907 73.625 42.7583C73.9218 42.6259 74.2566 42.5597 74.6293 42.5597C74.8985 42.5597 75.1573 42.5981 75.4058 42.6747C75.6612 42.7444 75.8855 42.8454 76.0788 42.9778C76.3135 43.145 76.4308 43.3192 76.4308 43.5003C76.4308 43.5909 76.4032 43.6675 76.348 43.7302C76.2928 43.7929 76.2272 43.8243 76.1513 43.8243C76.0685 43.8243 75.9442 43.7651 75.7786 43.6466C75.5853 43.5212 75.4024 43.4237 75.2298 43.354C75.0572 43.2843 74.8433 43.2495 74.5879 43.2495C74.2635 43.2495 74.0012 43.3226 73.801 43.469C73.6077 43.6153 73.5111 43.8103 73.5111 44.0542C73.5111 44.2075 73.5456 44.3329 73.6146 44.4304C73.6906 44.521 73.8113 44.6046 73.977 44.6812C74.1496 44.7509 74.3946 44.8206 74.7121 44.8902C75.1815 44.9948 75.5439 45.1097 75.7993 45.2351C76.0616 45.3605 76.2479 45.5138 76.3584 45.695C76.4688 45.8761 76.524 46.106 76.524 46.3847C76.524 46.8236 76.3411 47.179 75.9753 47.4507C75.6094 47.7154 75.1263 47.8478 74.5258 47.8478Z" fill="#EFF3F8"/>
<path d="M81.0204 47.8269C80.8893 47.8269 80.7857 47.7886 80.7098 47.7119C80.6339 47.6283 80.5959 47.5203 80.5959 47.388V40.8249C80.5959 40.6995 80.6339 40.5985 80.7098 40.5219C80.7927 40.4452 80.8996 40.4069 81.0308 40.4069H83.4846C84.2508 40.4069 84.8444 40.595 85.2654 40.9712C85.6934 41.3475 85.9074 41.8804 85.9074 42.5702C85.9074 43.2599 85.6934 43.7964 85.2654 44.1796C84.8375 44.5628 84.2439 44.7544 83.4846 44.7544H81.4449V47.388C81.4449 47.5203 81.407 47.6283 81.331 47.7119C81.2551 47.7886 81.1516 47.8269 81.0204 47.8269ZM83.4018 44.0437C84.5131 44.0437 85.0687 43.5526 85.0687 42.5702C85.0687 41.6018 84.5131 41.1175 83.4018 41.1175H81.4449V44.0437H83.4018Z" fill="#EFF3F8"/>
<path d="M89.0941 42.5597C90.3573 42.5597 90.9889 43.2286 90.9889 44.5663V47.4089C90.9889 47.5343 90.9509 47.6353 90.875 47.7119C90.8059 47.7886 90.7093 47.8269 90.5851 47.8269C90.4608 47.8269 90.3607 47.7886 90.2848 47.7119C90.2089 47.6353 90.1709 47.5343 90.1709 47.4089V46.9072C90.0398 47.2068 89.8396 47.4402 89.5704 47.6074C89.3012 47.7677 88.9906 47.8478 88.6386 47.8478C88.3142 47.8478 88.0139 47.7816 87.7378 47.6492C87.4686 47.5169 87.2546 47.3322 87.0959 47.0953C86.9371 46.8585 86.8577 46.5972 86.8577 46.3115C86.8577 45.9284 86.9544 45.6322 87.1476 45.4232C87.3409 45.2073 87.6584 45.054 88.1002 44.9634C88.5419 44.8659 89.1563 44.8171 89.9431 44.8171H90.1709V44.4722C90.1709 44.0542 90.0846 43.7476 89.9121 43.5526C89.7464 43.3575 89.4738 43.2599 89.0941 43.2599C88.6248 43.2599 88.1485 43.3888 87.6653 43.6466C87.479 43.7651 87.3478 43.8243 87.2719 43.8243C87.1891 43.8243 87.12 43.7929 87.0648 43.7302C87.0096 43.6675 86.982 43.5874 86.982 43.4899C86.982 43.3923 87.0096 43.3087 87.0648 43.239C87.1269 43.1624 87.2236 43.0858 87.3547 43.0091C87.5963 42.8698 87.8689 42.7618 88.1727 42.6851C88.4833 42.6015 88.7904 42.5597 89.0941 42.5597ZM88.7525 47.179C89.1666 47.179 89.5048 47.0396 89.7671 46.7609C90.0363 46.4753 90.1709 46.1095 90.1709 45.6636V45.3605H89.9846C89.3771 45.3605 88.9147 45.3884 88.5972 45.4441C88.2796 45.4929 88.0519 45.58 87.9138 45.7054C87.7827 45.8238 87.7171 46.0015 87.7171 46.2384C87.7171 46.5101 87.8137 46.7365 88.007 46.9177C88.2072 47.0919 88.4557 47.179 88.7525 47.179Z" fill="#EFF3F8"/>
<path d="M95.0193 42.5806C95.3092 42.5597 95.4541 42.6782 95.4541 42.936C95.4541 43.0474 95.4231 43.138 95.361 43.2077C95.2988 43.2704 95.1918 43.3087 95.04 43.3226L94.7294 43.354C94.2669 43.3958 93.9218 43.563 93.694 43.8556C93.4731 44.1413 93.3627 44.4792 93.3627 44.8693V47.4089C93.3627 47.5482 93.3247 47.6527 93.2488 47.7224C93.1729 47.7921 93.0728 47.8269 92.9485 47.8269C92.8243 47.8269 92.7208 47.7921 92.6379 47.7224C92.562 47.6458 92.524 47.5412 92.524 47.4089V42.9987C92.524 42.8663 92.5655 42.7653 92.6483 42.6956C92.7311 42.619 92.8312 42.5806 92.9485 42.5806C93.059 42.5806 93.1522 42.619 93.2281 42.6956C93.304 42.7653 93.342 42.8628 93.342 42.9882V43.5735C93.4869 43.2669 93.6906 43.0335 93.9528 42.8733C94.222 42.713 94.5292 42.619 94.8743 42.5911L95.0193 42.5806Z" fill="#EFF3F8"/>
<path d="M99.4025 47.7746C99.2714 47.7746 99.1644 47.7363 99.0816 47.6597C99.0056 47.583 98.9677 47.482 98.9677 47.3566V40.8249C98.9677 40.6995 99.0056 40.5985 99.0816 40.5219C99.1644 40.4452 99.2714 40.4069 99.4025 40.4069H101.422C102.588 40.4069 103.489 40.7274 104.124 41.3684C104.766 42.0024 105.087 42.9081 105.087 44.0855C105.087 45.263 104.766 46.1722 104.124 46.8132C103.482 47.4542 102.581 47.7746 101.422 47.7746H99.4025ZM101.37 47.0431C103.261 47.0431 104.207 46.0572 104.207 44.0855C104.207 42.1208 103.261 41.1384 101.37 41.1384H99.8167V47.0431H101.37Z" fill="#EFF3F8"/>
<path d="M108.558 42.5597C109.821 42.5597 110.453 43.2286 110.453 44.5663V47.4089C110.453 47.5343 110.415 47.6353 110.339 47.7119C110.27 47.7886 110.173 47.8269 110.049 47.8269C109.925 47.8269 109.824 47.7886 109.749 47.7119C109.673 47.6353 109.635 47.5343 109.635 47.4089V46.9072C109.504 47.2068 109.303 47.4402 109.034 47.6074C108.765 47.7677 108.454 47.8478 108.102 47.8478C107.778 47.8478 107.478 47.7816 107.202 47.6492C106.932 47.5169 106.718 47.3322 106.56 47.0953C106.401 46.8585 106.321 46.5972 106.321 46.3115C106.321 45.9284 106.418 45.6322 106.611 45.4232C106.805 45.2073 107.122 45.054 107.564 44.9634C108.006 44.8659 108.62 44.8171 109.407 44.8171H109.635V44.4722C109.635 44.0542 109.548 43.7476 109.376 43.5526C109.21 43.3575 108.938 43.2599 108.558 43.2599C108.089 43.2599 107.612 43.3888 107.129 43.6466C106.943 43.7651 106.812 43.8243 106.736 43.8243C106.653 43.8243 106.584 43.7929 106.529 43.7302C106.473 43.6675 106.446 43.5874 106.446 43.4899C106.446 43.3923 106.473 43.3087 106.529 43.239C106.591 43.1624 106.687 43.0858 106.818 43.0091C107.06 42.8698 107.333 42.7618 107.636 42.6851C107.947 42.6015 108.254 42.5597 108.558 42.5597ZM108.216 47.179C108.63 47.179 108.969 47.0396 109.231 46.7609C109.5 46.4753 109.635 46.1095 109.635 45.6636V45.3605H109.448C108.841 45.3605 108.378 45.3884 108.061 45.4441C107.743 45.4929 107.516 45.58 107.378 45.7054C107.246 45.8238 107.181 46.0015 107.181 46.2384C107.181 46.5101 107.277 46.7365 107.471 46.9177C107.671 47.0919 107.919 47.179 108.216 47.179ZM107.305 41.2743C107.188 41.2743 107.095 41.2464 107.026 41.1907C106.963 41.135 106.932 41.0583 106.932 40.9608C106.932 40.8563 106.963 40.7762 107.026 40.7204C107.095 40.6647 107.188 40.6368 107.305 40.6368H109.811C109.928 40.6368 110.018 40.6647 110.08 40.7204C110.149 40.7762 110.183 40.8563 110.183 40.9608C110.183 41.0583 110.149 41.135 110.08 41.1907C110.018 41.2464 109.928 41.2743 109.811 41.2743H107.305Z" fill="#EFF3F8"/>
<path d="M115.622 42.8419C115.698 42.6747 115.819 42.5911 115.984 42.5911C116.088 42.5911 116.181 42.6259 116.264 42.6956C116.347 42.7653 116.388 42.8524 116.388 42.9569C116.388 43.0196 116.374 43.0753 116.347 43.1241L114.328 47.5134C114.286 47.604 114.224 47.6771 114.141 47.7328C114.059 47.7816 113.969 47.806 113.872 47.806C113.782 47.806 113.696 47.7816 113.613 47.7328C113.53 47.6771 113.465 47.604 113.417 47.5134L111.408 43.1241C111.38 43.0753 111.367 43.0231 111.367 42.9673C111.367 42.8628 111.411 42.7722 111.501 42.6956C111.598 42.619 111.701 42.5806 111.812 42.5806C111.881 42.5806 111.946 42.6015 112.008 42.6433C112.078 42.6851 112.129 42.7444 112.164 42.821L113.893 46.74L115.622 42.8419Z" fill="#EFF3F8"/>
<path d="M119.276 42.5597C120.539 42.5597 121.17 43.2286 121.17 44.5663V47.4089C121.17 47.5343 121.132 47.6353 121.056 47.7119C120.987 47.7886 120.891 47.8269 120.766 47.8269C120.642 47.8269 120.542 47.7886 120.466 47.7119C120.39 47.6353 120.352 47.5343 120.352 47.4089V46.9072C120.221 47.2068 120.021 47.4402 119.752 47.6074C119.483 47.7677 119.172 47.8478 118.82 47.8478C118.496 47.8478 118.195 47.7816 117.919 47.6492C117.65 47.5169 117.436 47.3322 117.277 47.0953C117.119 46.8585 117.039 46.5972 117.039 46.3115C117.039 45.9284 117.136 45.6322 117.329 45.4232C117.522 45.2073 117.84 45.054 118.282 44.9634C118.723 44.8659 119.338 44.8171 120.125 44.8171H120.352V44.4722C120.352 44.0542 120.266 43.7476 120.094 43.5526C119.928 43.3575 119.655 43.2599 119.276 43.2599C118.806 43.2599 118.33 43.3888 117.847 43.6466C117.66 43.7651 117.529 43.8243 117.453 43.8243C117.37 43.8243 117.301 43.7929 117.246 43.7302C117.191 43.6675 117.163 43.5874 117.163 43.4899C117.163 43.3923 117.191 43.3087 117.246 43.239C117.308 43.1624 117.405 43.0858 117.536 43.0091C117.778 42.8698 118.05 42.7618 118.354 42.6851C118.665 42.6015 118.972 42.5597 119.276 42.5597ZM118.934 47.179C119.348 47.179 119.686 47.0396 119.949 46.7609C120.218 46.4753 120.352 46.1095 120.352 45.6636V45.3605H120.166C119.559 45.3605 119.096 45.3884 118.779 45.4441C118.461 45.4929 118.233 45.58 118.095 45.7054C117.964 45.8238 117.899 46.0015 117.899 46.2384C117.899 46.5101 117.995 46.7365 118.188 46.9177C118.389 47.0919 118.637 47.179 118.934 47.179Z" fill="#EFF3F8"/>
<path d="M125.242 42.5597C126.45 42.5597 127.054 43.2321 127.054 44.5767V47.4089C127.054 47.5412 127.016 47.6458 126.94 47.7224C126.871 47.7921 126.771 47.8269 126.64 47.8269C126.509 47.8269 126.405 47.7921 126.329 47.7224C126.253 47.6458 126.215 47.5412 126.215 47.4089V44.629C126.215 44.1552 126.122 43.8103 125.936 43.5944C125.756 43.3784 125.466 43.2704 125.066 43.2704C124.604 43.2704 124.234 43.4132 123.958 43.6989C123.682 43.9845 123.544 44.3712 123.544 44.8589V47.4089C123.544 47.5412 123.506 47.6458 123.43 47.7224C123.361 47.7921 123.261 47.8269 123.13 47.8269C122.999 47.8269 122.895 47.7921 122.819 47.7224C122.743 47.6458 122.705 47.5412 122.705 47.4089V42.9987C122.705 42.8733 122.743 42.7722 122.819 42.6956C122.895 42.619 122.999 42.5806 123.13 42.5806C123.254 42.5806 123.351 42.619 123.42 42.6956C123.496 42.7722 123.534 42.8698 123.534 42.9882V43.5212C123.699 43.2077 123.931 42.9708 124.227 42.8106C124.524 42.6433 124.862 42.5597 125.242 42.5597Z" fill="#EFF3F8"/>
<path d="M130.65 42.5597C131.914 42.5597 132.545 43.2286 132.545 44.5663V47.4089C132.545 47.5343 132.507 47.6353 132.431 47.7119C132.362 47.7886 132.266 47.8269 132.141 47.8269C132.017 47.8269 131.917 47.7886 131.841 47.7119C131.765 47.6353 131.727 47.5343 131.727 47.4089V46.9072C131.596 47.2068 131.396 47.4402 131.127 47.6074C130.858 47.7677 130.547 47.8478 130.195 47.8478C129.87 47.8478 129.57 47.7816 129.294 47.6492C129.025 47.5169 128.811 47.3322 128.652 47.0953C128.493 46.8585 128.414 46.5972 128.414 46.3115C128.414 45.9284 128.511 45.6322 128.704 45.4232C128.897 45.2073 129.215 45.054 129.657 44.9634C130.098 44.8659 130.713 44.8171 131.499 44.8171H131.727V44.4722C131.727 44.0542 131.641 43.7476 131.468 43.5526C131.303 43.3575 131.03 43.2599 130.65 43.2599C130.181 43.2599 129.705 43.3888 129.222 43.6466C129.035 43.7651 128.904 43.8243 128.828 43.8243C128.745 43.8243 128.676 43.7929 128.621 43.7302C128.566 43.6675 128.538 43.5874 128.538 43.4899C128.538 43.3923 128.566 43.3087 128.621 43.239C128.683 43.1624 128.78 43.0858 128.911 43.0091C129.153 42.8698 129.425 42.7618 129.729 42.6851C130.04 42.6015 130.347 42.5597 130.65 42.5597ZM130.309 47.179C130.723 47.179 131.061 47.0396 131.323 46.7609C131.593 46.4753 131.727 46.1095 131.727 45.6636V45.3605H131.541C130.933 45.3605 130.471 45.3884 130.154 45.4441C129.836 45.4929 129.608 45.58 129.47 45.7054C129.339 45.8238 129.273 46.0015 129.273 46.2384C129.273 46.5101 129.37 46.7365 129.563 46.9177C129.764 47.0919 130.012 47.179 130.309 47.179ZM129.398 41.2743C129.28 41.2743 129.187 41.2464 129.118 41.1907C129.056 41.135 129.025 41.0583 129.025 40.9608C129.025 40.8563 129.056 40.7762 129.118 40.7204C129.187 40.6647 129.28 40.6368 129.398 40.6368H131.903C132.021 40.6368 132.11 40.6647 132.172 40.7204C132.241 40.7762 132.276 40.8563 132.276 40.9608C132.276 41.0583 132.241 41.135 132.172 41.1907C132.11 41.2464 132.021 41.2743 131.903 41.2743H129.398Z" fill="#EFF3F8"/>
<path d="M139.692 42.5597C140.81 42.5597 141.369 43.2321 141.369 44.5767V47.4089C141.369 47.5412 141.331 47.6458 141.255 47.7224C141.18 47.7921 141.079 47.8269 140.955 47.8269C140.831 47.8269 140.727 47.7921 140.645 47.7224C140.569 47.6458 140.531 47.5412 140.531 47.4089V44.5976C140.531 44.1308 140.448 43.7929 140.282 43.5839C140.117 43.3749 139.858 43.2704 139.506 43.2704C139.085 43.2704 138.753 43.4132 138.512 43.6989C138.27 43.9845 138.149 44.3712 138.149 44.8589V47.4089C138.149 47.5412 138.108 47.6458 138.025 47.7224C137.949 47.7921 137.849 47.8269 137.725 47.8269C137.601 47.8269 137.501 47.7921 137.425 47.7224C137.349 47.6458 137.311 47.5412 137.311 47.4089V44.5976C137.311 44.1308 137.228 43.7929 137.062 43.5839C136.897 43.3749 136.634 43.2704 136.275 43.2704C135.861 43.2704 135.53 43.4132 135.281 43.6989C135.04 43.9845 134.919 44.3712 134.919 44.8589V47.4089C134.919 47.5412 134.881 47.6458 134.805 47.7224C134.729 47.7921 134.629 47.8269 134.505 47.8269C134.381 47.8269 134.277 47.7921 134.194 47.7224C134.118 47.6458 134.08 47.5412 134.08 47.4089V42.9987C134.08 42.8733 134.118 42.7722 134.194 42.6956C134.277 42.619 134.381 42.5806 134.505 42.5806C134.622 42.5806 134.719 42.619 134.795 42.6956C134.871 42.7653 134.909 42.8628 134.909 42.9882V43.4899C135.061 43.1903 135.271 42.9604 135.54 42.8001C135.809 42.6399 136.12 42.5597 136.472 42.5597C137.259 42.5597 137.773 42.8942 138.015 43.563C138.16 43.2565 138.381 43.0126 138.677 42.8315C138.974 42.6503 139.312 42.5597 139.692 42.5597Z" fill="#EFF3F8"/>
<path d="M148.538 47.8583C147.585 47.8583 146.864 47.6074 146.374 47.1058C145.884 46.6042 145.639 45.8656 145.639 44.8902V40.7936C145.639 40.6612 145.677 40.5567 145.753 40.4801C145.829 40.3964 145.932 40.3546 146.063 40.3546C146.188 40.3546 146.288 40.3964 146.364 40.4801C146.44 40.5567 146.478 40.6612 146.478 40.7936V44.9634C146.478 45.681 146.65 46.221 146.995 46.5833C147.347 46.9456 147.862 47.1267 148.538 47.1267C149.214 47.1267 149.725 46.9456 150.07 46.5833C150.415 46.221 150.588 45.681 150.588 44.9634V40.7936C150.588 40.6612 150.626 40.5567 150.702 40.4801C150.785 40.3964 150.888 40.3546 151.013 40.3546C151.144 40.3546 151.247 40.3964 151.323 40.4801C151.399 40.5567 151.437 40.6612 151.437 40.7936V44.8902C151.437 45.8587 151.189 46.5972 150.692 47.1058C150.202 47.6074 149.484 47.8583 148.538 47.8583Z" fill="#EFF3F8"/>
<path d="M155.595 42.5597C156.803 42.5597 157.407 43.2321 157.407 44.5767V47.4089C157.407 47.5412 157.369 47.6458 157.293 47.7224C157.224 47.7921 157.124 47.8269 156.993 47.8269C156.862 47.8269 156.759 47.7921 156.683 47.7224C156.607 47.6458 156.569 47.5412 156.569 47.4089V44.629C156.569 44.1552 156.476 43.8103 156.289 43.5944C156.11 43.3784 155.82 43.2704 155.419 43.2704C154.957 43.2704 154.588 43.4132 154.312 43.6989C154.035 43.9845 153.897 44.3712 153.897 44.8589V47.4089C153.897 47.5412 153.859 47.6458 153.784 47.7224C153.715 47.7921 153.614 47.8269 153.483 47.8269C153.352 47.8269 153.249 47.7921 153.173 47.7224C153.097 47.6458 153.059 47.5412 153.059 47.4089V42.9987C153.059 42.8733 153.097 42.7722 153.173 42.6956C153.249 42.619 153.352 42.5806 153.483 42.5806C153.608 42.5806 153.704 42.619 153.773 42.6956C153.849 42.7722 153.887 42.8698 153.887 42.9882V43.5212C154.053 43.2077 154.284 42.9708 154.581 42.8106C154.878 42.6433 155.216 42.5597 155.595 42.5597Z" fill="#EFF3F8"/>
<path d="M168.022 47.2835C168.049 47.3392 168.063 47.3984 168.063 47.4611C168.063 47.5656 168.022 47.6527 167.939 47.7224C167.863 47.7921 167.77 47.8269 167.659 47.8269C167.487 47.8269 167.366 47.7433 167.297 47.5761L166.562 45.8831H162.658L161.913 47.5761C161.844 47.7433 161.723 47.8269 161.551 47.8269C161.44 47.8269 161.344 47.7921 161.261 47.7224C161.178 47.6458 161.136 47.5552 161.136 47.4507C161.136 47.3949 161.15 47.3392 161.178 47.2835L164.139 40.6368C164.18 40.5393 164.243 40.4661 164.325 40.4173C164.408 40.3686 164.498 40.3442 164.595 40.3442C164.698 40.3442 164.791 40.3721 164.874 40.4278C164.957 40.4766 165.019 40.5462 165.061 40.6368L168.022 47.2835ZM162.969 45.1724H166.251L164.605 41.4206L162.969 45.1724Z" fill="#EFF3F8"/>
<path d="M171.672 42.5597C172.114 42.5597 172.504 42.6712 172.842 42.8942C173.18 43.1171 173.442 43.4306 173.629 43.8347C173.815 44.2319 173.908 44.6952 173.908 45.2247C173.908 45.7542 173.815 46.2175 173.629 46.6146C173.442 47.0048 173.18 47.3078 172.842 47.5238C172.511 47.7398 172.121 47.8478 171.672 47.8478C171.279 47.8478 170.933 47.7607 170.637 47.5865C170.347 47.4124 170.126 47.165 169.974 46.8445V49.3004C169.974 49.4259 169.936 49.5234 169.86 49.5931C169.791 49.6697 169.691 49.708 169.56 49.708C169.429 49.708 169.325 49.6697 169.249 49.5931C169.173 49.5164 169.135 49.4189 169.135 49.3004V42.9987C169.135 42.8733 169.173 42.7722 169.249 42.6956C169.325 42.619 169.429 42.5806 169.56 42.5806C169.691 42.5806 169.791 42.619 169.86 42.6956C169.936 42.7722 169.974 42.8733 169.974 42.9987V43.563C170.126 43.2425 170.347 42.9952 170.637 42.821C170.933 42.6468 171.279 42.5597 171.672 42.5597ZM171.506 47.1476C171.996 47.1476 172.376 46.9804 172.645 46.646C172.914 46.3115 173.049 45.8378 173.049 45.2247C173.049 44.6116 172.914 44.1343 172.645 43.7929C172.376 43.4446 171.996 43.2704 171.506 43.2704C171.016 43.2704 170.637 43.4376 170.367 43.772C170.105 44.1064 169.974 44.5837 169.974 45.2038C169.974 45.8238 170.105 46.3046 170.367 46.646C170.637 46.9804 171.016 47.1476 171.506 47.1476Z" fill="#EFF3F8"/>
<path d="M176.86 47.8478C176.542 47.8478 176.238 47.8095 175.948 47.7328C175.665 47.6562 175.413 47.5482 175.193 47.4089C175.068 47.3253 174.979 47.2486 174.923 47.179C174.875 47.1023 174.851 47.0117 174.851 46.9072C174.851 46.8167 174.875 46.7435 174.923 46.6878C174.979 46.6251 175.048 46.5937 175.13 46.5937C175.213 46.5937 175.334 46.646 175.493 46.7505C175.7 46.8759 175.904 46.9769 176.104 47.0535C176.311 47.1232 176.566 47.1581 176.87 47.1581C177.243 47.1581 177.533 47.0919 177.74 46.9595C177.947 46.8271 178.05 46.6355 178.05 46.3847C178.05 46.2314 178.012 46.1095 177.936 46.0189C177.86 45.9214 177.729 45.8378 177.543 45.7681C177.356 45.6915 177.084 45.6148 176.725 45.5382C176.118 45.4058 175.683 45.2282 175.42 45.0052C175.158 44.7823 175.027 44.4792 175.027 44.096C175.027 43.7964 175.11 43.5317 175.275 43.3017C175.441 43.0718 175.669 42.8907 175.959 42.7583C176.256 42.6259 176.59 42.5597 176.963 42.5597C177.232 42.5597 177.491 42.5981 177.74 42.6747C177.995 42.7444 178.219 42.8454 178.413 42.9778C178.647 43.145 178.765 43.3192 178.765 43.5003C178.765 43.5909 178.737 43.6675 178.682 43.7302C178.627 43.7929 178.561 43.8243 178.485 43.8243C178.402 43.8243 178.278 43.7651 178.112 43.6466C177.919 43.5212 177.736 43.4237 177.564 43.354C177.391 43.2843 177.177 43.2495 176.922 43.2495C176.597 43.2495 176.335 43.3226 176.135 43.469C175.941 43.6153 175.845 43.8103 175.845 44.0542C175.845 44.2075 175.879 44.3329 175.948 44.4304C176.024 44.521 176.145 44.6046 176.311 44.6812C176.483 44.7509 176.728 44.8206 177.046 44.8902C177.515 44.9948 177.878 45.1097 178.133 45.2351C178.395 45.3605 178.582 45.5138 178.692 45.695C178.803 45.8761 178.858 46.106 178.858 46.3847C178.858 46.8236 178.675 47.179 178.309 47.4507C177.943 47.7154 177.46 47.8478 176.86 47.8478Z" fill="#EFF3F8"/>
<path d="M183.679 42.8419C183.755 42.6747 183.876 42.5911 184.042 42.5911C184.145 42.5911 184.238 42.6259 184.321 42.6956C184.404 42.7653 184.445 42.8524 184.445 42.9569C184.445 43.0196 184.432 43.0753 184.404 43.1241L182.385 47.5134C182.344 47.604 182.282 47.6771 182.199 47.7328C182.116 47.7816 182.026 47.806 181.93 47.806C181.84 47.806 181.753 47.7816 181.671 47.7328C181.588 47.6771 181.522 47.604 181.474 47.5134L179.465 43.1241C179.438 43.0753 179.424 43.0231 179.424 42.9673C179.424 42.8628 179.469 42.7722 179.559 42.6956C179.655 42.619 179.759 42.5806 179.869 42.5806C179.938 42.5806 180.004 42.6015 180.066 42.6433C180.135 42.6851 180.187 42.7444 180.221 42.821L181.95 46.74L183.679 42.8419Z" fill="#EFF3F8"/>
<path d="M189.206 46.5937C189.282 46.5937 189.348 46.6251 189.403 46.6878C189.458 46.7505 189.486 46.8306 189.486 46.9281C189.486 47.1023 189.365 47.2626 189.123 47.4089C188.875 47.5552 188.613 47.6667 188.337 47.7433C188.06 47.813 187.791 47.8478 187.529 47.8478C186.749 47.8478 186.131 47.6144 185.676 47.1476C185.227 46.6808 185.003 46.0363 185.003 45.2142C185.003 44.6917 185.103 44.2319 185.303 43.8347C185.503 43.4306 185.783 43.1171 186.142 42.8942C186.507 42.6712 186.921 42.5597 187.384 42.5597C188.04 42.5597 188.561 42.7757 188.947 43.2077C189.334 43.6396 189.527 44.2249 189.527 44.9634C189.527 45.1027 189.5 45.2038 189.444 45.2665C189.389 45.3292 189.299 45.3605 189.175 45.3605H185.841C185.903 46.5589 186.466 47.1581 187.529 47.1581C187.798 47.1581 188.029 47.1232 188.223 47.0535C188.416 46.9769 188.623 46.8759 188.844 46.7505C189.023 46.646 189.144 46.5937 189.206 46.5937ZM187.394 43.2181C186.953 43.2181 186.597 43.3575 186.328 43.6362C186.066 43.9148 185.91 44.3085 185.862 44.8171H188.792C188.778 44.3015 188.651 43.9079 188.409 43.6362C188.167 43.3575 187.829 43.2181 187.394 43.2181Z" fill="#EFF3F8"/>
<path d="M191.187 47.8269C191.063 47.8269 190.96 47.7921 190.877 47.7224C190.801 47.6458 190.763 47.5412 190.763 47.4089V42.9987C190.763 42.8663 190.801 42.7653 190.877 42.6956C190.96 42.619 191.063 42.5806 191.187 42.5806C191.312 42.5806 191.412 42.619 191.488 42.6956C191.564 42.7653 191.601 42.8663 191.601 42.9987V47.4089C191.601 47.5482 191.564 47.6527 191.488 47.7224C191.412 47.7921 191.312 47.8269 191.187 47.8269ZM191.187 41.4833C191.022 41.4833 190.887 41.4345 190.784 41.337C190.68 41.2395 190.628 41.1106 190.628 40.9503C190.628 40.7971 190.68 40.6716 190.784 40.5741C190.887 40.4766 191.022 40.4278 191.187 40.4278C191.353 40.4278 191.488 40.4766 191.591 40.5741C191.695 40.6716 191.746 40.7971 191.746 40.9503C191.746 41.1106 191.695 41.2395 191.591 41.337C191.488 41.4345 191.353 41.4833 191.187 41.4833Z" fill="#EFF3F8"/>
<path d="M197.197 47.1058C197.307 47.2103 197.363 47.3218 197.363 47.4402C197.363 47.5447 197.325 47.6353 197.249 47.7119C197.18 47.7886 197.093 47.8269 196.99 47.8269C196.9 47.8269 196.807 47.7851 196.71 47.7015L194.008 45.3501V47.4089C194.008 47.5412 193.966 47.6458 193.884 47.7224C193.808 47.7921 193.711 47.8269 193.594 47.8269C193.47 47.8269 193.366 47.7921 193.283 47.7224C193.207 47.6458 193.169 47.5412 193.169 47.4089V40.7727C193.169 40.6403 193.207 40.5393 193.283 40.4696C193.366 40.393 193.47 40.3546 193.594 40.3546C193.711 40.3546 193.808 40.393 193.884 40.4696C193.966 40.5393 194.008 40.6403 194.008 40.7727V45.0157L196.482 42.727C196.565 42.6433 196.658 42.6015 196.762 42.6015C196.866 42.6015 196.955 42.6399 197.031 42.7165C197.107 42.7931 197.145 42.8837 197.145 42.9882C197.145 43.1067 197.097 43.2112 197 43.3017L194.96 45.1411L197.197 47.1058Z" fill="#EFF3F8"/>
<path d="M202.177 42.5806C202.308 42.5806 202.408 42.619 202.477 42.6956C202.553 42.7722 202.591 42.8733 202.591 42.9987V47.4193C202.591 47.5378 202.553 47.6353 202.477 47.7119C202.408 47.7886 202.308 47.8269 202.177 47.8269C202.053 47.8269 201.953 47.7921 201.877 47.7224C201.808 47.6458 201.773 47.5482 201.773 47.4298V46.9072C201.614 47.2138 201.39 47.4472 201.1 47.6074C200.817 47.7677 200.496 47.8478 200.137 47.8478C199.537 47.8478 199.085 47.6806 198.781 47.3462C198.477 47.0048 198.325 46.5031 198.325 45.8413V42.9987C198.325 42.8733 198.363 42.7722 198.439 42.6956C198.515 42.619 198.619 42.5806 198.75 42.5806C198.881 42.5806 198.981 42.619 199.05 42.6956C199.126 42.7722 199.164 42.8733 199.164 42.9987V45.8204C199.164 46.2732 199.254 46.6076 199.433 46.8236C199.613 47.0326 199.896 47.1372 200.282 47.1372C200.724 47.1372 201.079 46.9943 201.349 46.7087C201.618 46.4161 201.752 46.0329 201.752 45.5591V42.9987C201.752 42.8733 201.79 42.7722 201.866 42.6956C201.942 42.619 202.046 42.5806 202.177 42.5806Z" fill="#EFF3F8"/>
<path d="M209.762 42.5597C210.88 42.5597 211.439 43.2321 211.439 44.5767V47.4089C211.439 47.5412 211.401 47.6458 211.325 47.7224C211.249 47.7921 211.149 47.8269 211.025 47.8269C210.9 47.8269 210.797 47.7921 210.714 47.7224C210.638 47.6458 210.6 47.5412 210.6 47.4089V44.5976C210.6 44.1308 210.517 43.7929 210.352 43.5839C210.186 43.3749 209.927 43.2704 209.575 43.2704C209.154 43.2704 208.823 43.4132 208.581 43.6989C208.34 43.9845 208.219 44.3712 208.219 44.8589V47.4089C208.219 47.5412 208.177 47.6458 208.095 47.7224C208.019 47.7921 207.919 47.8269 207.794 47.8269C207.67 47.8269 207.57 47.7921 207.494 47.7224C207.418 47.6458 207.38 47.5412 207.38 47.4089V44.5976C207.38 44.1308 207.297 43.7929 207.132 43.5839C206.966 43.3749 206.704 43.2704 206.345 43.2704C205.931 43.2704 205.599 43.4132 205.351 43.6989C205.109 43.9845 204.988 44.3712 204.988 44.8589V47.4089C204.988 47.5412 204.951 47.6458 204.875 47.7224C204.799 47.7921 204.699 47.8269 204.574 47.8269C204.45 47.8269 204.347 47.7921 204.264 47.7224C204.188 47.6458 204.15 47.5412 204.15 47.4089V42.9987C204.15 42.8733 204.188 42.7722 204.264 42.6956C204.347 42.619 204.45 42.5806 204.574 42.5806C204.692 42.5806 204.788 42.619 204.864 42.6956C204.94 42.7653 204.978 42.8628 204.978 42.9882V43.4899C205.13 43.1903 205.341 42.9604 205.61 42.8001C205.879 42.6399 206.19 42.5597 206.542 42.5597C207.328 42.5597 207.843 42.8942 208.084 43.563C208.229 43.2565 208.45 43.0126 208.747 42.8315C209.044 42.6503 209.382 42.5597 209.762 42.5597Z" fill="#EFF3F8"/>
<path d="M213.391 47.8269C213.267 47.8269 213.163 47.7921 213.081 47.7224C213.005 47.6458 212.967 47.5412 212.967 47.4089V42.9987C212.967 42.8663 213.005 42.7653 213.081 42.6956C213.163 42.619 213.267 42.5806 213.391 42.5806C213.515 42.5806 213.615 42.619 213.691 42.6956C213.767 42.7653 213.805 42.8663 213.805 42.9987V47.4089C213.805 47.5482 213.767 47.6527 213.691 47.7224C213.615 47.7921 213.515 47.8269 213.391 47.8269ZM213.391 41.4833C213.225 41.4833 213.091 41.4345 212.987 41.337C212.884 41.2395 212.832 41.1106 212.832 40.9503C212.832 40.7971 212.884 40.6716 212.987 40.5741C213.091 40.4766 213.225 40.4278 213.391 40.4278C213.557 40.4278 213.691 40.4766 213.795 40.5741C213.898 40.6716 213.95 40.7971 213.95 40.9503C213.95 41.1106 213.898 41.2395 213.795 41.337C213.691 41.4345 213.557 41.4833 213.391 41.4833Z" fill="#EFF3F8"/>
<path d="M219.276 46.5937C219.352 46.5937 219.418 46.6251 219.473 46.6878C219.528 46.7505 219.556 46.8306 219.556 46.9281C219.556 47.1023 219.435 47.2626 219.194 47.4089C218.945 47.5552 218.683 47.6667 218.407 47.7433C218.131 47.813 217.861 47.8478 217.599 47.8478C216.819 47.8478 216.201 47.6144 215.746 47.1476C215.297 46.6808 215.073 46.0363 215.073 45.2142C215.073 44.6917 215.173 44.2319 215.373 43.8347C215.573 43.4306 215.853 43.1171 216.212 42.8942C216.578 42.6712 216.992 42.5597 217.454 42.5597C218.11 42.5597 218.631 42.7757 219.018 43.2077C219.404 43.6396 219.597 44.2249 219.597 44.9634C219.597 45.1027 219.57 45.2038 219.515 45.2665C219.459 45.3292 219.37 45.3605 219.245 45.3605H215.911C215.974 46.5589 216.536 47.1581 217.599 47.1581C217.868 47.1581 218.1 47.1232 218.293 47.0535C218.486 46.9769 218.693 46.8759 218.914 46.7505C219.094 46.646 219.214 46.5937 219.276 46.5937ZM217.465 43.2181C217.023 43.2181 216.667 43.3575 216.398 43.6362C216.136 43.9148 215.98 44.3085 215.932 44.8171H218.862C218.848 44.3015 218.721 43.9079 218.479 43.6362C218.238 43.3575 217.899 43.2181 217.465 43.2181Z" fill="#EFF3F8"/>
<path d="M226.445 42.5597C227.563 42.5597 228.122 43.2321 228.122 44.5767V47.4089C228.122 47.5412 228.084 47.6458 228.008 47.7224C227.932 47.7921 227.832 47.8269 227.708 47.8269C227.584 47.8269 227.48 47.7921 227.397 47.7224C227.321 47.6458 227.283 47.5412 227.283 47.4089V44.5976C227.283 44.1308 227.201 43.7929 227.035 43.5839C226.869 43.3749 226.61 43.2704 226.258 43.2704C225.837 43.2704 225.506 43.4132 225.264 43.6989C225.023 43.9845 224.902 44.3712 224.902 44.8589V47.4089C224.902 47.5412 224.861 47.6458 224.778 47.7224C224.702 47.7921 224.602 47.8269 224.478 47.8269C224.353 47.8269 224.253 47.7921 224.177 47.7224C224.101 47.6458 224.063 47.5412 224.063 47.4089V44.5976C224.063 44.1308 223.981 43.7929 223.815 43.5839C223.649 43.3749 223.387 43.2704 223.028 43.2704C222.614 43.2704 222.283 43.4132 222.034 43.6989C221.792 43.9845 221.672 44.3712 221.672 44.8589V47.4089C221.672 47.5412 221.634 47.6458 221.558 47.7224C221.482 47.7921 221.382 47.8269 221.258 47.8269C221.133 47.8269 221.03 47.7921 220.947 47.7224C220.871 47.6458 220.833 47.5412 220.833 47.4089V42.9987C220.833 42.8733 220.871 42.7722 220.947 42.6956C221.03 42.619 221.133 42.5806 221.258 42.5806C221.375 42.5806 221.472 42.619 221.547 42.6956C221.623 42.7653 221.661 42.8628 221.661 42.9882V43.4899C221.813 43.1903 222.024 42.9604 222.293 42.8001C222.562 42.6399 222.873 42.5597 223.225 42.5597C224.012 42.5597 224.526 42.8942 224.767 43.563C224.912 43.2565 225.133 43.0126 225.43 42.8315C225.727 42.6503 226.065 42.5597 226.445 42.5597Z" fill="#EFF3F8"/>
<g clip-path="url(#clip0)">
<path d="M3.38477 43.2958C2.59039 43.3112 1.82325 43.0035 1.2561 42.4418C0.688953 41.8802 0.369482 41.1119 0.369629 40.3099V11.9437C0.369629 10.2946 1.69406 8.95776 3.32783 8.95776H32.9098C34.5436 8.95776 35.868 10.2946 35.868 11.9437V17.5124L3.38477 43.2958Z" fill="#8FBA39"/>
<path d="M3.32793 14.1832C2.91949 14.1832 2.58838 13.849 2.58838 13.4367V11.9437C2.58838 11.5315 2.91949 11.1973 3.32793 11.1973C3.73637 11.1973 4.06748 11.5315 4.06748 11.9437V13.4367C4.06748 13.849 3.73637 14.1832 3.32793 14.1832Z" fill="#6D8E2A"/>
<path d="M3.32793 28.3663C2.91949 28.3663 2.58838 28.0321 2.58838 27.6198V16.4226C2.58838 16.0104 2.91949 15.6761 3.32793 15.6761C3.73637 15.6761 4.06748 16.0104 4.06748 16.4226V27.6198C4.06748 28.0321 3.73637 28.3663 3.32793 28.3663Z" fill="#6D8E2A"/>
<path d="M40.8407 18.3991L11.7024 13.1738C10.0931 12.8852 8.5568 13.968 8.27089 15.5924L3.35288 43.5331C3.06697 45.1574 4.13976 46.7082 5.74902 46.9967L34.8873 52.2221C36.4966 52.5107 38.0329 51.4278 38.3188 49.8035L43.2368 21.8628C43.5227 20.2385 42.4499 18.6877 40.8407 18.3991Z" fill="#F04438"/>
<path d="M23.2158 50.1157L25.2592 38.5184L27.537 25.5901L29.1729 16.3076L23.3482 15.2626L21.7108 24.5518L19.4345 37.4726L17.3904 49.0699L23.2158 50.1157Z" fill="#FDE74C"/>
<path d="M41.016 34.3559L37.3967 33.7065L9.67761 28.7297L6.06565 28.0818L5.02954 33.9611L12.8429 35.3637L32.1666 38.8333L39.9799 40.236L41.016 34.3559Z" fill="#FDE74C"/>
<path d="M40.8283 12.9089C40.5395 12.6175 40.0713 12.6175 39.7825 12.9089L39.5658 13.1276L39.3492 12.9089C39.059 12.626 38.5977 12.63 38.3124 12.918C38.0272 13.2059 38.0232 13.6715 38.3034 13.9644L38.5201 14.1831L38.3034 14.4018C38.1112 14.5892 38.0341 14.8668 38.1018 15.1278C38.1694 15.3888 38.3714 15.5926 38.6299 15.6609C38.8885 15.7292 39.1635 15.6514 39.3492 15.4573L39.5658 15.2386L39.7825 15.4573C40.0727 15.7402 40.534 15.7362 40.8192 15.4483C41.1045 15.1603 41.1085 14.6947 40.8283 14.4018L40.6116 14.1831L40.8283 13.9644C41.117 13.6729 41.117 13.2004 40.8283 12.9089Z" fill="#F0C419"/>
<path d="M8.28797 50.2328C7.99918 49.9414 7.53104 49.9414 7.24225 50.2328L7.02556 50.4516L6.80887 50.2328C6.51869 49.9499 6.05743 49.954 5.77216 50.2419C5.48689 50.5299 5.48288 50.9955 5.76315 51.2884L5.97984 51.5071L5.76315 51.7258C5.5709 51.9132 5.49379 52.1908 5.56147 52.4518C5.62915 52.7128 5.83108 52.9166 6.08965 52.9849C6.34822 53.0532 6.62319 52.9754 6.80887 52.7813L7.02556 52.5626L7.24225 52.7813C7.53243 53.0642 7.99369 53.0602 8.27896 52.7722C8.56423 52.4843 8.56824 52.0187 8.28797 51.7258L8.07128 51.5071L8.28797 51.2884C8.57668 50.9969 8.57668 50.5243 8.28797 50.2328Z" fill="#613B9B"/>
<path d="M3.11121 47.9933C2.82242 47.7019 2.35428 47.7019 2.06549 47.9933L1.8488 48.2121L1.63211 47.9933C1.34193 47.7104 0.880668 47.7145 0.595399 48.0024C0.310129 48.2904 0.306121 48.756 0.58639 49.0489L0.803078 49.2676L0.58639 49.4863C0.394139 49.6737 0.317037 49.9513 0.384717 50.2123C0.452397 50.4732 0.654327 50.6771 0.912896 50.7454C1.17146 50.8137 1.44643 50.7359 1.63211 50.5418L1.8488 50.3231L2.06549 50.5418C2.25117 50.7359 2.52614 50.8137 2.78471 50.7454C3.04328 50.6771 3.24521 50.4732 3.31289 50.2123C3.38057 49.9513 3.30346 49.6737 3.11121 49.4863L2.89452 49.2676L3.11121 49.0489C3.39992 48.7574 3.39992 48.2848 3.11121 47.9933Z" fill="#F0C419"/>
<path d="M43.5698 9.70424L43.7865 9.48553C44.0668 9.19262 44.0628 8.72704 43.7775 8.4391C43.4922 8.15116 43.031 8.14711 42.7408 8.43L42.5241 8.64872L42.3074 8.43C42.0172 8.14711 41.556 8.15116 41.2707 8.4391C40.9854 8.72704 40.9814 9.19262 41.2617 9.48553L41.4784 9.70424L41.2617 9.92296C41.0694 10.1104 40.9923 10.3879 41.06 10.6489C41.1277 10.9099 41.3296 11.1137 41.5882 11.182C41.8468 11.2504 42.1217 11.1725 42.3074 10.9785L42.5241 10.7598L42.7408 10.9785C43.031 11.2614 43.4922 11.2573 43.7775 10.9694C44.0628 10.6814 44.0668 10.2159 43.7865 9.92296L43.5698 9.70424Z" fill="#613B9B"/>
<path d="M21.7768 36.9679C17.2789 36.9186 14.7866 42.5366 14.7866 42.5366L13.9775 38.6004L10.0779 39.4141C10.9549 36.679 13.1384 34.5741 15.8856 33.8155C17.1879 33.4221 20.3924 33.8372 22.063 34.1552L21.7768 36.9679Z" fill="#F3AC21"/>
<path d="M23.2329 37.2291C27.472 38.7482 27.8921 44.8895 27.8921 44.8895L29.9961 41.4758L33.3781 43.5996C33.5064 40.8087 32.2533 38.1357 30.0338 36.4662C27.9041 35.424 25.5925 34.8136 23.23 34.6694L23.2329 37.2291Z" fill="#F3AC21"/>
<path d="M23.5405 31.2192C23.5405 31.2192 23.6144 22.5989 16.8106 20.9275C16.4215 20.8368 16.015 20.8585 15.6376 20.9902C14.3316 21.4276 11.2632 22.734 9.64285 25.7445C9.20749 26.5466 9.159 27.5056 9.51121 28.3482C10.5702 30.8669 13.6416 35.6951 19.2503 34.2701L23.5405 31.2192Z" fill="#FFC914"/>
<path d="M19.7621 32.5016C16.9621 30.0136 16.6005 25.9491 16.5657 24.4643C16.5632 24.3323 16.63 24.2087 16.7414 24.1394C16.8527 24.0701 16.9921 24.0653 17.1078 24.1269C20.3227 25.6945 21.0585 30.0674 21.1983 31.258L19.7621 32.5016Z" fill="#F3AC21"/>
<path d="M26.5298 35.5742C27.413 36.1995 28.4178 36.628 29.4776 36.8313C29.8482 36.8999 30.2242 36.9344 30.601 36.9343C33.7286 36.9649 36.3836 34.8113 37.6918 33.4005C37.9736 33.1009 38.1897 32.7448 38.3264 32.3554C38.4845 31.8909 38.5309 31.395 38.4617 30.9088C37.9707 28.302 36.544 25.9698 34.4548 24.3592C34.1493 24.1013 33.7758 23.9391 33.3802 23.8926C28.2773 23.3029 25.365 27.519 24.1795 29.8152C23.9365 30.2689 23.723 30.7382 23.5405 31.22L26.5298 35.5742Z" fill="#FFC914"/>
<path d="M25.7266 32.0717C26.265 31.002 28.4488 27.1554 32.0024 26.8008C32.1322 26.7832 32.2616 26.8363 32.3424 26.9403C32.4233 27.0444 32.4436 27.1838 32.3958 27.3069C31.8559 28.6879 30.1284 32.377 26.6503 33.7386L25.7266 32.0717Z" fill="#F3AC21"/>
<path d="M26.6645 34.8098L26.402 36.2789C26.2571 37.0894 25.4907 37.6295 24.687 37.4874L20.3184 36.7029C19.5154 36.5567 18.9804 35.7831 19.1211 34.9718L19.3799 33.502C19.5173 32.7222 19.9559 32.0295 20.5993 31.5762C21.2427 31.1229 22.0382 30.9461 22.8107 31.0849L24.2669 31.3469C25.04 31.4848 25.727 31.9273 26.1767 32.5768C26.6264 33.2263 26.8019 34.0296 26.6645 34.8098Z" fill="#FDE74C"/>
</g>
<defs>
<clipPath id="clip0">
<rect y="8.2113" width="44.373" height="44.7887" fill="white"/>
</clipPath>
</defs>
</svg>
