<svg width="11" height="6" viewBox="0 0 11 6" fill="none" xmlns="http://www.w3.org/2000/svg">
<path d="M6.26422 5.83709L10.809 1.29221C10.9142 1.1871 10.9722 1.04677 10.9722 0.897152C10.9722 0.74753 10.9142 0.607207 10.809 0.50209L10.4744 0.167391C10.2564 -0.0503999 9.90198 -0.0503999 9.68427 0.167391L5.86783 3.98384L2.04715 0.163156C1.94195 0.0580384 1.80171 -4.00853e-07 1.65217 -4.0739e-07C1.50246 -4.13934e-07 1.36222 0.0580384 1.25694 0.163156L0.922409 0.497854C0.817208 0.603055 0.759253 0.743295 0.759253 0.892917C0.759253 1.04254 0.817208 1.18286 0.922409 1.28798L5.47135 5.83709C5.57689 5.94246 5.71779 6.00033 5.86758 6C6.01795 6.00033 6.15877 5.94246 6.26422 5.83709Z" fill="#F04438"/>
</svg>
