<svg width="14" height="10" viewBox="0 0 14 10" fill="none" xmlns="http://www.w3.org/2000/svg">
<path d="M7.54628 8.88911L13.7763 2.65893C13.9206 2.51484 14 2.32248 14 2.11738C14 1.91227 13.9206 1.71992 13.7763 1.57582L13.3176 1.11701C13.0188 0.818462 12.533 0.818462 12.2345 1.11701L7.0029 6.34864L1.76547 1.11121C1.62126 0.96711 1.42901 0.88755 1.22402 0.88755C1.01881 0.88755 0.826563 0.96711 0.68224 1.11121L0.223658 1.57002C0.0794477 1.71423 9.09136e-07 1.90647 9.00171e-07 2.11157C8.91205e-07 2.31668 0.0794477 2.50903 0.223658 2.65313L6.45941 8.88911C6.60408 9.03355 6.79723 9.11288 7.00256 9.11243C7.20869 9.11288 7.40173 9.03355 7.54628 8.88911Z" fill="#C9CDD1"/>
</svg>
