<svg width="10" height="14" viewBox="0 0 10 14" fill="none" xmlns="http://www.w3.org/2000/svg">
<path d="M8.88926 7.54628L2.65908 13.7763C2.51498 13.9206 2.32263 14 2.11752 14C1.91242 14 1.72006 13.9206 1.57597 13.7763L1.11716 13.3176C0.818606 13.0188 0.818606 12.533 1.11716 12.2345L6.34879 7.0029L1.11135 1.76547C0.967255 1.62126 0.887694 1.42901 0.887694 1.22402C0.887694 1.01881 0.967255 0.826563 1.11135 0.68224L1.57016 0.223658C1.71437 0.0794477 1.90661 8.64598e-07 2.11172 8.46667e-07C2.31682 8.28736e-07 2.50918 0.0794476 2.65327 0.223657L8.88926 6.45941C9.03369 6.60408 9.11303 6.79723 9.11257 7.00256C9.11303 7.20869 9.03369 7.40173 8.88926 7.54628Z" fill="#596065"/>
</svg>
