<svg width="22" height="22" viewBox="0 0 22 22" fill="none" xmlns="http://www.w3.org/2000/svg">
<path d="M15.8784 17.5642V18.3153H16.6344V17.5642C16.5095 17.5734 16.3835 17.5784 16.2564 17.5784C16.1293 17.5784 16.0033 17.5734 15.8784 17.5642Z" fill="#8FBA39"/>
<path d="M10.9642 5.41907C10.9642 2.77783 8.92926 0.629032 6.42797 0.629032C3.92668 0.629032 1.89177 2.77783 1.89177 5.41907C1.89177 8.06032 3.92668 10.2091 6.42797 10.2091C8.92926 10.2091 10.9642 8.06032 10.9642 5.41907ZM4.19398 7.65054C4.25555 7.72657 4.28393 7.82317 4.27298 7.91943C4.26204 8.0157 4.21264 8.10389 4.13549 8.16493C4.05833 8.22597 3.95963 8.25494 3.86072 8.24558C3.76182 8.23621 3.67068 8.18927 3.60702 8.1149C2.98576 7.3468 2.6479 6.39718 2.6479 5.41907C2.6479 4.44097 2.98576 3.49135 3.60702 2.72325C3.6383 2.68567 3.67687 2.65448 3.72052 2.63143C3.76417 2.60839 3.81205 2.59395 3.86142 2.58894C3.9108 2.58393 3.9607 2.58845 4.00829 2.60224C4.05587 2.61603 4.1002 2.63882 4.13875 2.66931C4.17729 2.6998 4.2093 2.7374 4.23294 2.77994C4.25659 2.82249 4.2714 2.86916 4.27654 2.91729C4.28168 2.96542 4.27704 3.01406 4.26289 3.06044C4.24874 3.10682 4.22536 3.15003 4.19408 3.18761C3.68211 3.8244 3.40389 4.61008 3.40389 5.41912C3.40389 6.22816 3.68201 7.01375 4.19398 7.65054Z" fill="#8FBA39"/>
<path d="M6.04995 10.9318V11.683H6.80599V10.9318C6.6811 10.941 6.55508 10.946 6.42797 10.946C6.30086 10.946 6.17484 10.9411 6.04995 10.9318Z" fill="#8FBA39"/>
<path d="M16.2564 7.2614C13.7551 7.2614 11.7202 9.41019 11.7202 12.0514C11.7202 14.6927 13.7551 16.8415 16.2564 16.8415C18.7577 16.8415 20.7926 14.6927 20.7926 12.0514C20.7926 9.41019 18.7577 7.2614 16.2564 7.2614ZM14.0224 14.3985C14.084 14.4745 14.1124 14.5711 14.1014 14.6674C14.0905 14.7637 14.0411 14.8519 13.9639 14.9129C13.8868 14.9739 13.7881 15.0029 13.6892 14.9936C13.5903 14.9842 13.4991 14.9372 13.4355 14.8629C12.8142 14.0948 12.4763 13.1452 12.4763 12.167C12.4763 11.1889 12.8142 10.2393 13.4355 9.47122C13.4667 9.43365 13.5053 9.40245 13.549 9.3794C13.5926 9.35636 13.6405 9.34192 13.6899 9.33691C13.7392 9.3319 13.7891 9.33642 13.8367 9.35021C13.8843 9.36401 13.9286 9.3868 13.9672 9.41729C14.0057 9.44778 14.0377 9.48537 14.0614 9.52792C14.085 9.57046 14.0998 9.61713 14.105 9.66526C14.1101 9.71339 14.1055 9.76203 14.0913 9.80841C14.0772 9.85479 14.0538 9.89801 14.0225 9.93558C13.5105 10.5724 13.2323 11.3581 13.2323 12.1671C13.2323 12.9761 13.5105 13.7617 14.0224 14.3985Z" fill="#8FBA39"/>
<path d="M15.8784 19.5474C15.8775 19.8403 15.7582 20.121 15.5464 20.3287C15.3703 20.4994 15.2308 20.7024 15.1358 20.9261C15.0408 21.1497 14.9922 21.3895 14.9929 21.6315C14.9929 21.7292 15.0327 21.823 15.1036 21.8921C15.1745 21.9612 15.2707 22 15.3709 22C15.4712 22 15.5673 21.9612 15.6382 21.8921C15.7091 21.823 15.749 21.7292 15.749 21.6315C15.7485 21.4863 15.7776 21.3424 15.8346 21.2082C15.8916 21.074 15.9754 20.9522 16.081 20.8498C16.257 20.6791 16.3966 20.4762 16.4916 20.2526C16.5866 20.0291 16.6351 19.7894 16.6345 19.5474V19.0523H15.8784V19.5474Z" fill="#8FBA39"/>
<path d="M7.13806 18.8813C7.49202 18.5354 7.69081 18.0669 7.69081 17.5784C7.69081 17.0899 7.49202 16.6214 7.13806 16.2756L6.25256 15.4124C6.03995 15.2051 5.92052 14.9239 5.92052 14.6307C5.92052 14.3375 6.03995 14.0563 6.25256 13.849C6.42858 13.6783 6.56812 13.4753 6.66313 13.2518C6.75813 13.0282 6.8067 12.7885 6.80602 12.5466V12.4199H6.04999V12.5466C6.04909 12.8394 5.92979 13.1202 5.71795 13.3278C5.36356 13.6734 5.16448 14.1421 5.16448 14.6307C5.16448 15.1193 5.36356 15.5879 5.71795 15.9335L6.60345 16.7967C6.81584 17.0042 6.93512 17.2853 6.93512 17.5784C6.93512 17.8715 6.81584 18.1527 6.60345 18.3602L5.71795 19.2233C5.5424 19.3944 5.40314 19.5975 5.30813 19.821C5.21312 20.0446 5.16422 20.2842 5.16422 20.5261C5.16422 20.7681 5.21312 21.0077 5.30813 21.2312C5.40314 21.4548 5.5424 21.6579 5.71795 21.829L5.78268 21.8921C5.81779 21.9263 5.85946 21.9534 5.90532 21.972C5.95119 21.9905 6.00034 22 6.04999 22C6.09963 22 6.14879 21.9905 6.19465 21.972C6.24052 21.9534 6.28219 21.9263 6.31729 21.8921C6.3524 21.8579 6.38024 21.8172 6.39924 21.7725C6.41824 21.7278 6.42801 21.6799 6.42801 21.6315C6.42801 21.5831 6.41824 21.5352 6.39924 21.4905C6.38024 21.4458 6.3524 21.4052 6.31729 21.371L6.25256 21.3079C6.14722 21.2052 6.06365 21.0834 6.00664 20.9492C5.94963 20.8151 5.92029 20.6713 5.92029 20.5261C5.92029 20.3809 5.94963 20.2372 6.00664 20.103C6.06365 19.9689 6.14722 19.847 6.25256 19.7444L7.13806 18.8813Z" fill="#8FBA39"/>
<path d="M13.8317 4.83474C13.757 4.83475 13.6839 4.81315 13.6217 4.77266C13.5595 4.73218 13.5111 4.67463 13.4824 4.6073C13.4538 4.53997 13.4463 4.46588 13.4609 4.3944C13.4755 4.32291 13.5115 4.25725 13.5644 4.20572L14.6336 3.16357C14.6687 3.12935 14.7103 3.1022 14.7562 3.08368C14.8021 3.06516 14.8512 3.05563 14.9009 3.05563C14.9505 3.05563 14.9997 3.06516 15.0456 3.08368C15.0914 3.1022 15.1331 3.12935 15.1682 3.16357C15.2033 3.19778 15.2312 3.23841 15.2502 3.28312C15.2692 3.32783 15.2789 3.37575 15.2789 3.42414C15.2789 3.47253 15.2692 3.52045 15.2502 3.56516C15.2312 3.60987 15.2033 3.65049 15.1682 3.68471L14.099 4.72687C14.064 4.76111 14.0223 4.78827 13.9764 4.80678C13.9306 4.82529 13.8814 4.83479 13.8317 4.83474Z" fill="#8FBA39"/>
<path d="M0.868426 10.4697C0.79366 10.4697 0.720572 10.4481 0.658404 10.4076C0.596237 10.3671 0.547784 10.3095 0.519172 10.2422C0.490559 10.1749 0.483073 10.1008 0.49766 10.0293C0.512247 9.95784 0.548252 9.89219 0.601122 9.84066L1.13573 9.31955C1.17083 9.28534 1.21251 9.2582 1.25837 9.23968C1.30424 9.22116 1.35339 9.21163 1.40304 9.21163C1.45268 9.21163 1.50184 9.22116 1.5477 9.23968C1.59357 9.2582 1.63524 9.28534 1.67034 9.31955C1.70544 9.35377 1.73329 9.39439 1.75229 9.4391C1.77129 9.4838 1.78106 9.53172 1.78106 9.58011C1.78106 9.62849 1.77129 9.67641 1.75229 9.72111C1.73329 9.76582 1.70544 9.80644 1.67034 9.84066L1.13573 10.3618C1.10067 10.396 1.059 10.4232 1.01313 10.4417C0.967253 10.4602 0.918078 10.4697 0.868426 10.4697Z" fill="#8FBA39"/>
<path d="M9.60869 15.1518C9.55904 15.1518 9.50987 15.1423 9.464 15.1238C9.41813 15.1053 9.37646 15.0781 9.34138 15.0439L8.27221 14.0017C8.20131 13.9326 8.16148 13.8389 8.16148 13.7412C8.16148 13.6434 8.20131 13.5497 8.27221 13.4806C8.34311 13.4115 8.43927 13.3727 8.53953 13.3727C8.6398 13.3727 8.73596 13.4115 8.80686 13.4806L9.87604 14.5227C9.92891 14.5743 9.96492 14.6399 9.9795 14.7114C9.99409 14.7829 9.9866 14.857 9.95798 14.9243C9.92936 14.9917 9.8809 15.0492 9.81872 15.0897C9.75655 15.1302 9.68346 15.1518 9.60869 15.1518Z" fill="#8FBA39"/>
<path d="M12.7435 1.25804C12.6939 1.25811 12.6447 1.24861 12.5988 1.23009C12.553 1.21157 12.5113 1.18439 12.4762 1.15013L11.9416 0.629025C11.9065 0.594809 11.8787 0.554188 11.8597 0.509483C11.8407 0.464778 11.8309 0.416863 11.8309 0.368474C11.8309 0.320085 11.8407 0.272171 11.8597 0.227465C11.8787 0.18276 11.9065 0.14214 11.9416 0.107924C11.9767 0.0737076 12.0184 0.0465659 12.0643 0.0280484C12.1101 0.00953081 12.1593 0 12.2089 0C12.2586 0 12.3077 0.00953081 12.3536 0.0280484C12.3995 0.0465659 12.4411 0.0737076 12.4762 0.107924L13.0108 0.629025C13.0637 0.680555 13.0997 0.746211 13.1143 0.817688C13.1289 0.889165 13.1214 0.963253 13.0928 1.03058C13.0642 1.09791 13.0157 1.15546 12.9536 1.19595C12.8914 1.23643 12.8183 1.25804 12.7435 1.25804Z" fill="#8FBA39"/>
<path d="M0.757716 1.73443C1.17526 1.73443 1.51375 1.40449 1.51375 0.997497C1.51375 0.590502 1.17526 0.260567 0.757716 0.260567C0.34017 0.260567 0.0016819 0.590502 0.0016819 0.997497C0.0016819 1.40449 0.34017 1.73443 0.757716 1.73443Z" fill="#8FBA39"/>
<path d="M16.4757 1.30455L17.5447 0.262533L19.8125 2.47298L18.7435 3.515L16.4757 1.30455Z" fill="#8FBA39"/>
<path d="M21.1706 6.156C21.5882 6.156 21.9267 5.82607 21.9267 5.41907C21.9267 5.01208 21.5882 4.68214 21.1706 4.68214C20.7531 4.68214 20.4146 5.01208 20.4146 5.41907C20.4146 5.82607 20.7531 6.156 21.1706 6.156Z" fill="#8FBA39"/>
<path d="M0 13.8925L1.06903 12.8505L3.33678 15.0609L2.26775 16.1029L0 13.8925Z" fill="#8FBA39"/>
<path d="M2.6478 20.8946C3.06535 20.8946 3.40383 20.5647 3.40383 20.1577C3.40383 19.7507 3.06535 19.4207 2.6478 19.4207C2.23025 19.4207 1.89177 19.7507 1.89177 20.1577C1.89177 20.5647 2.23025 20.8946 2.6478 20.8946Z" fill="#8FBA39"/>
<path d="M9.8916 19.8515L10.9606 18.8095L12.0297 19.8515L10.9606 20.8935L9.8916 19.8515Z" fill="#8FBA39"/>
<path d="M20.8574 17.6375L21.9264 18.6795L19.6586 20.89L18.5896 19.8479L20.8574 17.6375Z" fill="#8FBA39"/>
</svg>
