<svg width="20" height="20" viewBox="0 0 20 20" fill="none" xmlns="http://www.w3.org/2000/svg">
<path d="M14.6106 9.44336C14.35 7.31719 12.6719 5.64336 10.5451 5.38817C10.362 5.36727 10.1778 5.3568 9.99351 5.35676C8.1139 5.35965 6.42148 6.49559 5.70671 8.23399C4.99195 9.97239 5.39589 11.9703 6.72988 13.2945C7.43925 13.9738 7.8455 14.91 7.8571 15.8921V16.4286H12.1428V15.8893C12.146 14.9258 12.538 14.0043 13.23 13.3337C14.275 12.3254 14.7862 10.8849 14.6106 9.44336Z" fill="#8FBA39"/>
<path d="M10 20C10.4539 19.9995 10.8584 19.7135 11.0102 19.2857H8.9898C9.1416 19.7135 9.54609 19.9995 10 20Z" fill="#8FBA39"/>
<path d="M8.2143 18.2143C8.21457 18.4114 8.3743 18.5712 8.57144 18.5714H11.4286C11.6257 18.5712 11.7855 18.4114 11.7857 18.2143V17.1429H8.2143V18.2143Z" fill="#8FBA39"/>
<path d="M10 3.2143C10.3945 3.2143 10.7143 2.89449 10.7143 2.5V0.714297C10.7143 0.319805 10.3945 0 10 0C9.60551 0 9.2857 0.319805 9.2857 0.714297V2.5C9.2857 2.89449 9.60551 3.2143 10 3.2143Z" fill="#8FBA39"/>
<path d="M3.97184 4.98203C4.25449 5.25199 4.69941 5.25199 4.98207 4.98203C5.11606 4.84809 5.19133 4.66637 5.19133 4.47691C5.19133 4.28746 5.11606 4.10574 4.98207 3.9718L3.7193 2.70926C3.58539 2.57527 3.40371 2.5 3.2143 2.5C3.02488 2.5 2.8432 2.57527 2.70926 2.70926C2.57527 2.84316 2.5 3.02484 2.5 3.2143C2.5 3.40375 2.57527 3.58539 2.70926 3.71934L3.97184 4.98203Z" fill="#8FBA39"/>
<path d="M3.2143 10C3.2143 9.6055 2.89449 9.2857 2.5 9.2857H0.714297C0.319961 9.28609 0.000390625 9.60566 0 10C0.000390625 10.3943 0.319961 10.7139 0.714297 10.7143H2.5C2.89449 10.7143 3.2143 10.3945 3.2143 10Z" fill="#8FBA39"/>
<path d="M4.66236 14.832C4.41548 14.766 4.1522 14.8369 3.97185 15.018L2.70931 16.2807C2.57532 16.4146 2.50005 16.5963 2.50005 16.7857C2.50005 16.9752 2.57532 17.1568 2.70931 17.2908C2.99189 17.5607 3.43677 17.5607 3.71935 17.2908L4.98208 16.0282C5.1631 15.8479 5.23404 15.5846 5.16806 15.3377C5.10208 15.0909 4.90923 14.898 4.66236 14.832Z" fill="#8FBA39"/>
<path d="M16.0281 15.018C15.8478 14.8369 15.5845 14.766 15.3376 14.832C15.0908 14.898 14.8979 15.0908 14.832 15.3377C14.766 15.5845 14.8369 15.8478 15.0179 16.0282L16.2807 17.2907C16.5633 17.5607 17.0081 17.5607 17.2907 17.2907C17.4247 17.1568 17.5 16.9751 17.5 16.7857C17.5 16.5962 17.4247 16.4146 17.2907 16.2806L16.0281 15.018Z" fill="#8FBA39"/>
<path d="M19.2857 9.2857H17.5C17.1055 9.2857 16.7857 9.6055 16.7857 10C16.7857 10.3945 17.1055 10.7143 17.5 10.7143H19.2857C19.6802 10.7143 20 10.3945 20 10C20 9.6055 19.6802 9.2857 19.2857 9.2857Z" fill="#8FBA39"/>
<path d="M16.0282 4.98203L17.2907 3.71929C17.4711 3.53886 17.5416 3.2759 17.4756 3.02941C17.4095 2.78293 17.217 2.59043 16.9705 2.52437C16.724 2.45832 16.4611 2.52879 16.2806 2.70922L15.0179 3.97176C14.8839 4.1057 14.8086 4.28742 14.8086 4.47687C14.8086 4.66633 14.8839 4.84804 15.0179 4.98199C15.3006 5.25199 15.7456 5.25199 16.0282 4.98203Z" fill="#8FBA39"/>
</svg>
