<svg width="20" height="20" viewBox="0 0 20 20" fill="none" xmlns="http://www.w3.org/2000/svg">
<path d="M5.06531 0C3.58617 0 2.38281 1.20336 2.38281 2.6825C2.38281 3.7857 3.04484 4.76305 4.0691 5.17273L5.7857 5.85938H14.2143L15.9309 5.17273C16.9552 4.76305 17.6172 3.7857 17.6172 2.6825C17.6172 1.20336 16.4138 0 14.9347 0C13.8315 0 12.8541 0.662031 12.4445 1.68629L11.5346 3.96109C11.087 3.68355 10.5643 3.51562 10 3.51562C9.43574 3.51562 8.91301 3.68355 8.46543 3.96109L7.55555 1.68629C7.14586 0.662031 6.16852 0 5.06531 0ZM7.34684 5.22152L4.50398 4.08441C3.92719 3.85379 3.55469 3.30391 3.55469 2.6825C3.55469 1.84937 4.23219 1.17188 5.06531 1.17188C5.68672 1.17188 6.2366 1.54437 6.46723 2.12117L7.55457 4.83941C7.475 4.96016 7.40812 5.08934 7.34684 5.22152ZM13.5328 2.12117C13.7634 1.54437 14.3133 1.17188 14.9347 1.17188C15.7678 1.17188 16.4453 1.84937 16.4453 2.6825C16.4453 3.30391 16.0728 3.85379 15.496 4.08441L12.6532 5.22152C12.5919 5.08934 12.525 4.96016 12.4455 4.83945L13.5328 2.12117Z" fill="#8FBA39"/>
<path d="M1.21094 7.61719V10C1.21094 10.3239 1.47301 10.5859 1.79688 10.5859H7.07031V7.03125H1.79688C1.47301 7.03125 1.21094 7.29332 1.21094 7.61719Z" fill="#8FBA39"/>
<path d="M18.2031 7.03125H12.9297V10.5859H18.2031C18.527 10.5859 18.7891 10.3239 18.7891 10V7.61719C18.7891 7.29332 18.527 7.03125 18.2031 7.03125Z" fill="#8FBA39"/>
<path d="M2.38281 19.4141C2.38281 19.7379 2.64488 20 2.96875 20H7.07031V11.7578H2.38281V19.4141Z" fill="#8FBA39"/>
<path d="M12.9297 20H17.0312C17.3551 20 17.6172 19.7379 17.6172 19.4141V11.7578H12.9297V20Z" fill="#8FBA39"/>
<path d="M8.24219 7.03125H11.7578V20H8.24219V7.03125Z" fill="#8FBA39"/>
</svg>
