<svg width="17" height="18" viewBox="0 0 17 18" fill="none" xmlns="http://www.w3.org/2000/svg">
<path d="M8.96772 0C6.40484 0 4.30982 2.10203 4.30982 4.67348C4.30982 7.24492 6.40484 9.34695 8.96772 9.34695C11.5306 9.34695 13.6256 7.24492 13.6256 4.67348C13.6256 2.10203 11.5306 0 8.96772 0Z" fill="#8FBA39"/>
<path d="M16.9614 13.0816C16.8394 12.7755 16.6767 12.4898 16.4936 12.2245C15.5579 10.8367 14.1138 9.91836 12.4866 9.69387C12.2832 9.67348 12.0595 9.71426 11.8967 9.83672C11.0425 10.4694 10.0255 10.7959 8.96775 10.7959C7.91004 10.7959 6.89305 10.4694 6.03876 9.83672C5.87602 9.71426 5.65228 9.65305 5.4489 9.69387C3.82168 9.91836 2.35721 10.8367 1.44191 12.2245C1.25885 12.4898 1.09611 12.7959 0.974097 13.0816C0.91309 13.2041 0.933412 13.347 0.994419 13.4694C1.15716 13.7551 1.36054 14.0409 1.5436 14.2857C1.82835 14.6735 2.13346 15.0204 2.47926 15.347C2.76401 15.6327 3.08944 15.898 3.41492 16.1633C5.02177 17.3674 6.9541 18 8.94743 18C10.9408 18 12.8731 17.3673 14.4799 16.1633C14.8054 15.9184 15.1308 15.6327 15.4156 15.347C15.741 15.0204 16.0665 14.6735 16.3513 14.2857C16.5546 14.0204 16.7377 13.7551 16.9004 13.4694C17.0021 13.347 17.0224 13.2041 16.9614 13.0816Z" fill="#8FBA39"/>
</svg>
